Coordinates
version=1
nRows=5
nColumns=63
inDegrees=yes

Units are S.I. units (second, meters, Newtons, ...)
If the header above contains a line with 'inDegrees', this indicates whether rotational values are in degrees (yes) or radians (no).

endheader
time	pelvis_tilt	pelvis_list	pelvis_rotation	pelvis_tx	pelvis_ty	pelvis_tz	hip_flexion_r	hip_adduction_r	hip_rotation_r	knee_angle_r	knee_angle_r_beta	ankle_angle_r	subtalar_angle_r	mtp_angle_r	hip_flexion_l	hip_adduction_l	hip_rotation_l	knee_angle_l	knee_angle_l_beta	ankle_angle_l	subtalar_angle_l	mtp_angle_l	L5_S1_Flex_Ext	L5_S1_Lat_Bending	L5_S1_axial_rotation	L4_L5_Flex_Ext	L4_L5_Lat_Bending	L4_L5_axial_rotation	L3_L4_Flex_Ext	L3_L4_Lat_Bending	L3_L4_axial_rotation	L2_L3_Flex_Ext	L2_L3_Lat_Bending	L2_L3_axial_rotation	L1_L2_Flex_Ext	L1_L2_Lat_Bending	L1_L2_axial_rotation	L1_T12_Flex_Ext	L1_T12_Lat_Bending	L1_T12_axial_rotation	Abs_r3	Abs_r2	Abs_r1	Abs_t1	Abs_t2	neck_flexion	neck_bending	neck_rotation	arm_flex_r	arm_add_r	arm_rot_r	elbow_flex_r	pro_sup_r	wrist_flex_r	wrist_dev_r	arm_flex_l	arm_add_l	arm_rot_l	elbow_flex_l	pro_sup_l	wrist_flex_l	wrist_dev_l
     11.78300000	    -42.99812797	      3.04899505	     -1.50077183	     -0.38015180	      1.12257588	      0.01513815	     76.74211966	     -4.46680177	     -4.42904835	     37.97384957	      0.66276870	     -2.88500310	     -2.72966519	      0.00000000	    115.51955495	     -1.22467402	      6.48792623	    108.37544890	      1.89150841	     11.53887839	    -12.20536131	      0.00000000	     -0.08092559	     -0.20319039	      0.28973139	     -0.15028691	     -0.27024321	      0.30783960	     -0.13295265	     -0.49403710	      0.30783960	     -0.09248985	     -0.49403710	      0.25351497	     -0.07514750	     -0.41434583	      0.23540676	     -0.04624088	     -0.31474191	      0.21729854	     -0.57804338	     -2.29853028	      1.61139909	      0.00000000	      0.00000000	     -0.00000000	      0.00000000	      0.00000000	     60.68717691	    -10.64306188	     17.80848592	     38.78468923	     59.86489226	      0.00000000	      5.00000014	     65.55395533	     -8.31386872	     28.67216692	     32.18263887	     61.89710724	      0.00000000	      5.00000014
     11.79200000	    -42.96794698	      3.08552236	     -1.64371988	     -0.38025364	      1.12285458	      0.01519038	     76.35045350	     -4.37594905	     -4.25915832	     38.69877982	      0.67542112	     -2.79665794	     -2.80350387	      0.00000000	    116.20760598	     -1.29605202	      6.61165943	    107.81792427	      1.88177777	     11.74577376	    -12.09102425	      0.00000000	     -0.08286864	     -0.21172850	      0.32482902	     -0.15389536	     -0.28159891	      0.34513083	     -0.13614489	     -0.51479668	      0.34513083	     -0.09471057	     -0.51479668	      0.28422539	     -0.07695182	     -0.43175676	      0.26392358	     -0.04735114	     -0.32796745	      0.24362176	     -0.59192242	     -2.39511514	      1.80660155	      0.00000000	      0.00000000	     -0.00000000	      0.00000000	      0.00000000	     60.66407004	    -10.67537766	     17.75955270	     38.70660780	     59.85938131	      0.00000000	      5.00000014	     65.49524670	     -8.30748831	     28.70502585	     32.24748549	     61.90150213	      0.00000000	      5.00000014
     11.80000000	    -42.91967418	      3.10267738	     -1.76760303	     -0.38029531	      1.12280368	      0.01529873	     76.25100237	     -4.24572218	     -3.77847345	     40.09306811	      0.69975605	     -2.59532764	     -3.08972666	      0.00000000	    116.79069497	     -1.36165404	      6.76285549	    107.25228749	      1.87190555	     12.22006261	    -11.68637051	      0.00000000	     -0.08244224	     -0.22033853	      0.34943835	     -0.15310348	     -0.29305025	      0.37127824	     -0.13544436	     -0.53573111	      0.37127824	     -0.09422324	     -0.53573111	      0.30575855	     -0.07655586	     -0.44931434	      0.28391866	     -0.04710750	     -0.34130439	      0.26207876	     -0.58887668	     -2.49251356	      1.94347125	      0.00000000	      0.00000000	     -0.00000000	      0.00000000	      0.00000000	     60.60370603	    -10.66349384	     17.62520685	     38.57383925	     59.84236863	      0.00000000	      5.00000014	     65.42673078	     -8.35341203	     28.74572674	     32.39003030	     61.90718069	      0.00000000	      5.00000014
     11.80800000	    -42.91227473	      3.03859283	     -1.92845895	     -0.38045250	      1.12299892	      0.01540942	     76.18321553	     -4.07388677	     -3.49678762	     41.41387364	      0.72280845	     -2.51794446	     -3.34200087	      0.00000000	    117.22106796	     -1.43367588	      6.97091976	    106.39522737	      1.85694703	     12.55200156	    -11.34472193	      0.00000000	     -0.08201640	     -0.21680256	      0.38054830	     -0.15231267	     -0.28834741	      0.40433257	     -0.13474475	     -0.52713375	      0.40433257	     -0.09373655	     -0.52713375	      0.33297977	     -0.07616043	     -0.44210379	      0.30919550	     -0.04686417	     -0.33582717	      0.28541123	     -0.58583498	     -2.45251396	      2.11649550	      0.00000000	      0.00000000	     -0.00000000	      0.00000000	      0.00000000	     60.57327760	    -10.67085885	     17.50249313	     38.45343015	     59.82701524	      0.00000000	      5.00000014	     65.34178804	     -8.38552900	     28.75756246	     32.53671160	     61.90704319	      0.00000000	      5.00000014
     11.81700000	    -42.92830973	      3.06621890	     -2.02424957	     -0.38070297	      1.12319499	      0.01571930	     76.30109023	     -3.91023833	     -3.00042840	     42.96263961	      0.74983952	     -2.73153196	     -4.25741275	      0.00000000	    117.45382380	     -1.55422444	      7.13054686	    105.32424935	      1.83825493	     13.63200270	     -9.88276664	      0.00000000	     -0.08184914	     -0.22834294	      0.38422455	     -0.15200203	     -0.30369611	      0.40823859	     -0.13446994	     -0.55519302	      0.40823859	     -0.09354538	     -0.55519302	      0.33619648	     -0.07600511	     -0.46563692	      0.31218245	     -0.04676860	     -0.35370321	      0.28816841	     -0.58464019	     -2.58306097	      2.13694169	      0.00000000	      0.00000000	     -0.00000000	      0.00000000	      0.00000000	     60.52576003	    -10.46715798	     17.04977222	     38.31815860	     59.73481039	      0.00000000	      5.00000014	     65.25897616	     -8.53684970	     28.65606868	     32.81262041	     61.85660001	      0.00000000	      5.00000014
